<?xml version="1.0" encoding="UTF-8"?>
<svg width="36px" height="35px" viewBox="0 0 36 35" version="1.1" xmlns="http://www.w3.org/2000/svg" xmlns:xlink="http://www.w3.org/1999/xlink">
    <!-- Generator: sketchtool 52.6 (67491) - http://www.bohemiancoding.com/sketch -->
    <title>376BC982-0369-4B3D-996A-1E4F84982757</title>
    <desc>Created with sketchtool.</desc>
    <g id="Page-1" stroke="none" stroke-width="1" fill="none" fill-rule="evenodd">
        <g id="Smiles" transform="translate(-110.000000, -46.000000)">
            <g id="Group-2-Copy" transform="translate(38.000000, 38.000000)">
                <g id="001-smile" transform="translate(72.000000, 8.000000)">
                    <ellipse id="Oval" fill="#FFCA28" cx="18" cy="17.5" rx="18" ry="17.5"></ellipse>
                    <g id="Group" transform="translate(9.000000, 10.937500)" fill="#6D4C41">
                        <ellipse id="Oval" cx="2.25" cy="2.1875" rx="2.25" ry="2.1875"></ellipse>
                        <ellipse id="Oval" cx="15.75" cy="2.1875" rx="2.25" ry="2.1875"></ellipse>
                        <path d="M9,18.0625 C5.994,18.0625 3.12625,18.2724892 1,16.2074892 C0.56125,15.7809267 0.56125,15.0874892 1,14.6609267 C1.43875,14.2343642 2.152,14.2343642 2.59075,14.6609267 C4.28265022,16.3069183 6.65665615,16.054778 9,16.0625 C11.3654346,16.0702948 13.7002699,16.3224351 15.40925,14.6609267 C15.848,14.2343642 16.56125,14.2343642 17,14.6609267 C17.43875,15.0874892 17.43875,15.7809267 17,16.2074892 C14.876,18.2724892 12.006,18.0625 9,18.0625 Z" id="Path"></path>
                    </g>
                </g>
            </g>
        </g>
    </g>
</svg>