<?xml version="1.0" encoding="UTF-8"?>
<svg width="36px" height="35px" viewBox="0 0 52 51" version="1.1" xmlns="http://www.w3.org/2000/svg" xmlns:xlink="http://www.w3.org/1999/xlink">
    <!-- Generator: sketchtool 52.6 (67491) - http://www.bohemiancoding.com/sketch -->
    <title>31991483-B62A-4DD8-A666-2FA045DA4E78</title>
    <desc>Created with sketchtool.</desc>
    <g id="Page-1" stroke="none" stroke-width="1" fill="none" fill-rule="evenodd">
        <g id="Smiles" transform="translate(-38.000000, -38.000000)">
            <g id="Group-2-Copy" transform="translate(38.000000, 38.000000)">
                <g id="001-smile-copy">
                    <ellipse id="Oval" fill="#FFCA28" cx="26" cy="25.5" rx="26" ry="25.5"></ellipse>
                    <g id="Group" transform="translate(13.000000, 16.000000)" fill="#6D4C41">
                        <ellipse id="Oval" cx="3.25" cy="3.15972222" rx="3.25" ry="3.15972222"></ellipse>
                        <ellipse id="Oval" cx="22.75" cy="3.15972222" rx="3.25" ry="3.15972222"></ellipse>
                        <path d="M13,25.2777778 C8.658,25.2777778 4.57925,23.6315625 1.508,20.6487847 C0.87425,20.0326389 0.87425,19.0310069 1.508,18.4148611 C2.14175,17.7987153 3.172,17.7987153 3.80575,18.4148611 C8.7165,23.1923611 17.277,23.1923611 22.191,18.4148611 C22.82475,17.7987153 23.855,17.7987153 24.48875,18.4148611 C25.1225,19.0310069 25.1225,20.0326389 24.48875,20.6487847 C21.42075,23.6315625 17.342,25.2777778 13,25.2777778 Z" id="Path"></path>
                    </g>
                </g>
            </g>
        </g>
    </g>
</svg>