<?xml version="1.0" encoding="UTF-8"?>
<svg width="35px" height="35px" viewBox="0 0 35 35" version="1.1" xmlns="http://www.w3.org/2000/svg" xmlns:xlink="http://www.w3.org/1999/xlink">
    <!-- Generator: sketchtool 52.6 (67491) - http://www.bohemiancoding.com/sketch -->
    <title>5DF9875B-3C07-4EE3-8A6F-FB17A8A9D101</title>
    <desc>Created with sketchtool.</desc>
    <g id="Page-1" stroke="none" stroke-width="1" fill="none" fill-rule="evenodd">
        <g id="Smiles" transform="translate(-274.000000, -46.000000)">
            <g id="Group-2-Copy" transform="translate(38.000000, 38.000000)">
                <g id="sad" transform="translate(253.500000, 25.500000) scale(-1, 1) translate(-253.500000, -25.500000) translate(236.000000, 8.000000)">
                    <circle id="Oval" fill="#FFCA28" cx="17.5" cy="17.5" r="17.5"></circle>
                    <g id="Group" transform="translate(8.536585, 10.670732)" fill="#6D4C41">
                        <path d="M15.710625,16.1626404 C15.430625,16.1626404 15.150625,16.0544183 14.93625,15.8401827 C11.62875,12.5007577 5.866875,12.5007577 2.5615625,15.8401827 C2.135,16.2708625 1.4415625,16.2708625 1.015,15.8401827 C0.5884375,15.4095029 0.5884375,14.7093721 1.015,14.2786923 C3.0821875,12.1937602 5.8275,11.0430721 8.75,11.0430721 C11.6725,11.0430721 14.4178125,12.1937602 16.4828125,14.2786923 C16.909375,14.7093721 16.909375,15.4095029 16.4828125,15.8401827 C16.270625,16.0566269 15.990625,16.1626404 15.710625,16.1626404 Z" id="Path"></path>
                        <ellipse id="Oval" cx="2.1875" cy="2.20861443" rx="2.1875" ry="2.20861443"></ellipse>
                        <ellipse id="Oval" cx="15.3125" cy="2.20861443" rx="2.1875" ry="2.20861443"></ellipse>
                    </g>
                </g>
            </g>
        </g>
    </g>
</svg>