<?xml version="1.0" encoding="UTF-8"?>
<svg width="65px" height="65px" viewBox="0 0 340 340" version="1.1" xmlns="http://www.w3.org/2000/svg" xmlns:xlink="http://www.w3.org/1999/xlink">
    <!-- Generator: Sketch 52.6 (67491) - http://www.bohemiancoding.com/sketch -->
    <title>Logotype</title>
    <desc>Created with Sketch.</desc>
    <g id="Page-1" stroke="none" stroke-width="1" fill="none" fill-rule="evenodd">
        <g id="Logotype">
            <path d="M125.5,183.5 C176.92422,194.458164 215.5,240.216046 215.5,295 C215.5,349.783954 176.92422,395.541836 125.5,406.5 C156.215852,379.205277 175.573515,339.36732 175.573515,295 C175.573515,250.63268 156.215852,210.794723 125.5,183.5 Z" id="Combined-Shape" fill="#8AC82F" transform="translate(170.500000, 295.000000) scale(1, -1) rotate(90.000000) translate(-170.500000, -295.000000) "></path>
            <path d="M125.5,-66.5 C176.92422,-55.5418358 215.5,-9.78395398 215.5,45 C215.5,99.783954 176.92422,145.541836 125.5,156.5 C156.215852,129.205277 175.573515,89.3673197 175.573515,45 C175.573515,0.632680325 156.215852,-39.2052774 125.5,-66.5 Z" id="Combined-Shape" fill="#EE584E" transform="translate(170.500000, 45.000000) scale(-1, 1) rotate(90.000000) translate(-170.500000, -45.000000) "></path>
            <path d="M3.99555944e-11,59 C51.4242195,69.9581642 90,115.716046 90,170.5 C90,225.283954 51.4242195,271.041836 2.65796274e-11,282 C30.7158517,254.705277 50.0735155,214.86732 50.0735155,170.5 C50.0735155,126.13268 30.7158517,86.2947226 -5.844214e-13,59 Z" id="Combined-Shape" fill="#F8CC33"></path>
            <path d="M250,59 C301.42422,69.9581642 340,115.716046 340,170.5 C340,225.283954 301.42422,271.041836 250,282 C280.715852,254.705277 300.073515,214.86732 300.073515,170.5 C300.073515,126.13268 280.715852,86.2947226 250,59 Z" id="Combined-Shape" fill="#4DACF3" transform="translate(295.000000, 170.500000) scale(-1, 1) translate(-295.000000, -170.500000) "></path>
        </g>
    </g>
</svg>