<svg width="22" height="22" xmlns="http://www.w3.org/2000/svg">
  <g fill="none" fill-rule="evenodd">
    <path d="M-1-1h24v24H-1z"/>
    <g fill="#B6BDC7">
      <path d="M18.342 21.782c-.69-3.592-3.575-6.286-7.028-6.286-3.453 0-6.337 2.694-7.027 6.286 1.72-2.145 4.23-3.497 7.027-3.497 2.797 0 5.308 1.352 7.028 3.497zM4.287.218c.69 3.592 3.574 6.286 7.027 6.286 3.453 0 6.337-2.694 7.028-6.286-1.72 2.145-4.231 3.497-7.028 3.497-2.796 0-5.307-1.352-7.027-3.497zM0 3.667c3.592.69 6.286 3.574 6.286 7.027 0 3.453-2.694 6.338-6.286 7.028 2.145-1.72 3.497-4.231 3.497-7.028 0-2.796-1.352-5.307-3.497-7.027zM22 3.667c-3.592.69-6.286 3.574-6.286 7.027 0 3.453 2.694 6.338 6.286 7.028-2.145-1.72-3.497-4.231-3.497-7.028 0-2.796 1.352-5.307 3.497-7.027z"/>
    </g>
  </g>
</svg>